<?xml version="1.0" standalone="no"?>
<!DOCTYPE svg PUBLIC "-//W3C//DTD SVG 20010904//EN"
 "http://www.w3.org/TR/2001/REC-SVG-20010904/DTD/svg10.dtd">
<svg version="1.0" xmlns="http://www.w3.org/2000/svg"
 width="121.000000pt" height="121.000000pt" viewBox="0 0 121.000000 121.000000"
 preserveAspectRatio="xMidYMid meet">
<metadata>
Created by potrace 1.11, written by Peter Selinger 2001-2013
</metadata>
<g transform="translate(0.000000,121.000000) scale(0.100000,-0.100000)"
fill="#000000" stroke="none">
<path d="M502 1203 c-25 -3 -37 -12 -49 -38 -9 -18 -31 -42 -49 -51 -29 -16
-40 -17 -76 -7 -40 11 -46 10 -80 -14 -41 -28 -115 -103 -142 -145 -14 -21
-15 -30 -5 -51 24 -53 -5 -110 -77 -153 -16 -9 -18 -25 -20 -116 -2 -129 3
-157 30 -168 55 -21 91 -103 66 -149 -10 -19 -8 -28 15 -61 29 -42 105 -116
146 -142 21 -13 32 -14 68 -5 35 10 47 9 76 -7 19 -10 41 -33 49 -51 19 -39
49 -46 186 -41 78 3 96 6 105 21 5 10 22 32 36 49 22 25 34 30 70 30 24 0 51
-3 60 -7 35 -17 219 166 203 202 -25 59 -3 131 47 151 35 15 48 55 47 155 0
113 -6 133 -43 151 -18 8 -41 30 -51 49 -16 30 -17 40 -7 77 11 40 10 46 -14
80 -28 41 -103 115 -145 142 -22 14 -31 15 -49 6 -12 -7 -37 -10 -57 -6 -36 5
-92 50 -92 72 0 7 -5 16 -11 19 -13 9 -192 15 -237 8z"/>
</g>
</svg>
